<svg width="698" height="359" viewBox="0 0 698 359" fill="none" xmlns="http://www.w3.org/2000/svg">
<g clip-path="url(#clip0_88_14)">
<path d="M229.865 359C208.804 359 187.774 358.613 166.775 357.839C136.771 356.734 105.744 355.591 76.9067 339.181C56.7336 327.703 38.8671 309.286 25.2393 285.922C16.1307 270.086 9.45195 252.906 5.43751 234.986C-2.05097 202.359 -1.7959 168.364 6.18126 135.859C8.97676 124.714 12.8306 113.878 17.6873 103.505C38.7175 58.8234 77.0749 28.8301 122.925 21.2159C123.303 21.1655 123.686 21.1571 124.067 21.1908C124.273 21.2022 124.478 21.2143 124.688 21.2053L124.958 21.1173C125.649 20.8707 126.36 20.6837 127.081 20.5582C197.794 9.75744 272.547 31.6111 343.255 83.7549C397.926 124.078 470.38 145.791 564.758 150.135L566.098 150.207C592.371 151.756 617.784 162.869 639.594 182.347C661.121 201.572 677.284 227.221 686.336 256.524C687.449 260.096 688.469 263.815 689.368 267.576C690.205 271.071 690.146 274.729 689.197 278.194C688.247 281.659 686.44 284.813 683.95 287.349V287.356L683.715 287.604C683.15 288.181 682.554 288.735 681.945 289.25L681.23 289.855C675.198 294.953 670.435 298.98 664.733 302.107C660.931 304.179 656.887 305.745 652.698 306.769C629.7 312.522 606.344 317.856 583.28 322.623C538.489 331.889 492.517 339.533 446.643 345.341C374.724 354.44 302.329 359.001 229.865 359ZM123.53 22.7734C123.39 22.772 123.249 22.7818 123.109 22.8027C77.6883 30.3457 39.6939 60.0446 18.8723 104.284C14.0635 114.554 10.2478 125.283 7.48011 136.317C-0.424362 168.534 -0.676256 202.227 6.74561 234.564C10.7208 252.313 17.3348 269.329 26.3554 285.014C39.8498 308.149 57.5336 326.38 77.4953 337.737C106.074 354 136.954 355.138 166.817 356.238C260.219 359.662 353.739 355.486 446.498 343.749C492.343 337.944 538.284 330.305 583.046 321.045C606.095 316.281 629.434 310.952 652.417 305.202C656.505 304.204 660.452 302.676 664.162 300.654C669.749 297.59 674.467 293.601 680.441 288.552L681.156 287.948C681.68 287.504 682.193 287.03 682.685 286.538L682.826 286.386C687.735 281.31 689.644 274.612 688.063 268.011V268.011C687.174 264.29 686.165 260.611 685.063 257.075C666.572 197.216 618.738 154.913 566.033 151.807L564.701 151.736C521.59 149.751 483.865 144.253 449.374 134.926C408.201 123.792 372.255 107.033 342.537 85.1133C272.099 33.1693 197.658 11.397 127.254 22.1465C126.596 22.2629 125.949 22.435 125.319 22.6611L124.833 22.8007C124.557 22.8134 124.28 22.81 124.004 22.7905C123.842 22.782 123.684 22.7734 123.53 22.7734Z" fill="#F0F0F0"/>
<path d="M218.027 116.967C216.077 115.047 214.082 104.344 211.593 103.258C213.454 107.477 212.103 108.594 212.093 113.224C212.116 115.854 211.817 118.476 211.202 121.028H169.034V87.2638C169.034 84.2299 169.616 81.2258 170.748 78.4228C171.879 75.6199 173.538 73.0731 175.629 70.9279C177.72 68.7826 180.202 67.0809 182.934 65.92C185.666 64.759 188.594 64.1615 191.551 64.1616C192.679 64.1842 193.801 64.3526 194.888 64.6629C198.513 65.6669 201.816 67.6312 204.467 70.3586C207.118 73.086 209.024 76.4807 209.992 80.2022C213.207 92.2577 218.32 112.325 218.027 116.967Z" fill="#2F2E41"/>
<path d="M171.508 158.503L171.529 132.186L156.451 133.568L161.772 150.167L159.282 191.887C158.074 192.165 156.971 192.798 156.108 193.708C155.244 194.618 154.657 195.767 154.419 197.013C154.18 198.259 154.301 199.55 154.765 200.727C155.229 201.905 156.017 202.918 157.033 203.644C158.048 204.37 159.248 204.777 160.486 204.816C161.723 204.854 162.944 204.522 164.001 203.861C165.058 203.199 165.904 202.237 166.437 201.09C166.97 199.944 167.166 198.663 167.001 197.404L171.508 158.503Z" fill="#FFB6B6"/>
<path d="M201.182 346.569L207.273 346.568L210.171 322.462H201.18L201.182 346.569Z" fill="#FFB6B6"/>
<path d="M199.119 343.486L208.748 342.896V347.129L217.903 353.616C218.356 353.937 218.696 354.397 218.875 354.93C219.055 355.463 219.063 356.041 218.9 356.579C218.736 357.117 218.409 357.588 217.966 357.922C217.524 358.256 216.989 358.436 216.439 358.436H204.975L202.999 354.249L202.227 358.436H197.905L199.119 343.486Z" fill="#2F2E41"/>
<path d="M165.959 346.569L172.051 346.568L174.949 322.462H165.958L165.959 346.569Z" fill="#FFB6B6"/>
<path d="M163.896 343.486L173.526 342.896V347.129L182.681 353.616C183.133 353.937 183.474 354.397 183.653 354.93C183.832 355.463 183.841 356.041 183.677 356.579C183.514 357.117 183.187 357.588 182.744 357.922C182.301 358.256 181.766 358.436 181.217 358.436H169.752L167.776 354.249L167.005 358.436H162.682L163.896 343.486Z" fill="#2F2E41"/>
<path d="M195.757 103.765L183.138 104.019L174.23 113.666L167.089 114.741C163.858 115.227 160.888 116.836 158.675 119.299C156.462 121.762 155.14 124.93 154.93 128.273L156.167 135.245H163.59L167.885 161.114C166.215 165.48 166.101 168.926 169.529 170.279L180.169 190.843L211.593 176.372C213.187 173.561 213.698 170.738 212.069 167.992L214.315 128.391H221.869C221.869 120.984 219.427 114.74 212.253 113.916C209.404 113.599 206.541 113.431 203.675 113.412L195.757 103.765Z" fill="#E6E6E6"/>
<path d="M211.593 176.372C211.593 176.372 180.911 181.957 169.529 170.279C169.529 170.279 168.373 172.292 166.632 175.63C166.131 176.59 165.164 177.24 164.58 178.403C164.049 179.46 162.684 180.759 162.106 181.958C161.641 182.922 162.387 184.182 161.903 185.224C156.074 197.768 149.264 215.462 150.724 227.146C151.665 234.681 153.61 252.214 155.658 271.045C155.818 272.516 154.522 274.406 154.683 275.889C154.834 277.287 156.443 278.278 156.595 279.68C156.695 280.611 155.572 281.56 155.672 282.49C155.783 283.509 157.117 284.509 157.226 285.525C160.032 311.527 162.601 335.802 162.601 335.802H176.952L179.66 280.359L177.447 260.149L182.643 219.276L189.819 258.118L190.742 279.979L198.325 336.818H211.593V281.794L212.583 278.935L211.593 275.269L212.583 271.319L211.593 267.018V176.372Z" fill="#2F2E41"/>
<path d="M199.631 96.257C197.676 98.9213 194.895 100.823 191.746 101.649C188.597 102.475 185.268 102.176 182.306 100.802C179.345 99.4271 176.928 97.0588 175.454 94.0868C173.98 91.1148 173.536 87.7163 174.196 84.451C174.856 81.1857 176.58 78.2483 179.084 76.1226C181.589 73.9968 184.724 72.8095 187.974 72.7562C191.224 72.7028 194.394 73.7866 196.964 75.829C199.533 77.8714 201.348 80.7507 202.109 83.9927C202.15 84.1686 202.185 84.3435 202.218 84.5251C202.621 86.5572 202.598 88.6536 202.152 90.676C201.706 92.6984 200.846 94.6006 199.631 96.257Z" fill="#FFB6B6"/>
<path d="M196.648 87.8832C196.345 86.3206 195.577 84.8928 194.451 83.7959C194.562 85.2933 194.359 86.7977 193.857 88.2082C190.095 88.55 186.316 87.7819 182.965 85.9944C180.441 84.2377 177.229 84.39 173.488 85.9944C173.488 84.1274 173.846 82.2786 174.542 80.5537C175.238 78.8287 176.259 77.2614 177.546 75.9412C178.833 74.621 180.36 73.5738 182.041 72.8594C183.723 72.1451 185.525 71.7775 187.344 71.7777H189.819C193.494 71.7784 197.018 73.2765 199.616 75.9425C202.214 78.6085 203.675 82.2241 203.675 85.9944C201.392 86.8348 199.04 87.4668 196.648 87.8832Z" fill="#2F2E41"/>
<path d="M88.3958 269.081C110.381 269.081 128.203 250.795 128.203 228.238C128.203 205.681 110.381 187.395 88.3958 187.395C66.4106 187.395 48.5881 205.681 48.5881 228.238C48.5881 250.795 66.4106 269.081 88.3958 269.081Z" fill="#F0F0F0"/>
<path d="M342.072 81.6852C364.058 81.6852 381.88 63.3993 381.88 40.8426C381.88 18.2858 364.058 0 342.072 0C320.087 0 302.265 18.2858 302.265 40.8426C302.265 63.3993 320.087 81.6852 342.072 81.6852Z" fill="#F0F0F0"/>
<path d="M658.192 275.487C680.177 275.487 698 257.201 698 234.645C698 212.088 680.177 193.802 658.192 193.802C636.207 193.802 618.385 212.088 618.385 234.645C618.385 257.201 636.207 275.487 658.192 275.487Z" fill="#F0F0F0"/>
<path d="M413.882 45.2967V137.91C413.883 139.834 413.143 141.68 411.824 143.047C410.505 144.415 408.714 145.193 406.839 145.213C406.813 145.216 406.787 145.217 406.761 145.216H396.255C387.849 145.216 379.787 141.79 373.843 135.692C367.899 129.593 364.56 121.322 364.56 112.697V45.2967C364.56 43.3589 365.31 41.5005 366.646 40.1303C367.981 38.7601 369.793 37.9904 371.681 37.9904H375.938C373.966 43.893 400.733 46.3781 402.202 37.9904H406.761C408.65 37.9904 410.461 38.7602 411.797 40.1304C413.132 41.5006 413.882 43.3589 413.882 45.2967Z" fill="#97B4FF"/>
<path d="M382.705 31.0649C382.705 30.8111 382.804 30.5677 382.979 30.3882C383.154 30.2087 383.391 30.1077 383.638 30.1074H389.984C390.232 30.1082 390.468 30.2094 390.643 30.3888C390.817 30.5683 390.915 30.8115 390.915 31.0649C390.915 31.3184 390.817 31.5615 390.643 31.741C390.468 31.9205 390.232 32.0217 389.984 32.0225H383.638C383.391 32.0222 383.154 31.9212 382.979 31.7417C382.804 31.5622 382.705 31.3188 382.705 31.0649Z" fill="#3F3D56"/>
<path d="M408.941 156.964H368.809C365.695 156.96 362.71 155.689 360.508 153.431C358.307 151.172 357.068 148.109 357.065 144.914V80.1739C356.844 80.0115 356.665 79.7976 356.541 79.5498C356.417 79.3021 356.353 79.0277 356.353 78.7493V72.2383C356.353 71.96 356.417 71.6856 356.541 71.4379C356.665 71.1902 356.844 70.9764 357.065 70.8141V69.0666C356.844 68.9043 356.665 68.6905 356.541 68.4428C356.417 68.1951 356.353 67.9207 356.353 67.6425V61.131C356.353 60.8527 356.417 60.5783 356.541 60.3306C356.665 60.083 356.844 59.8691 357.065 59.7068V56.5485C356.793 56.3985 356.565 56.1755 356.407 55.9033C356.249 55.6311 356.166 55.32 356.167 55.0031V48.492C356.166 48.1751 356.249 47.8638 356.407 47.5916C356.565 47.3193 356.793 47.0963 357.065 46.9462V38.2919C357.068 35.0973 358.307 32.0346 360.508 29.7758C362.71 27.5169 365.695 26.2463 368.809 26.2427H408.941C412.055 26.2463 415.04 27.5169 417.242 29.7758C419.443 32.0347 420.682 35.0974 420.685 38.292V57.1565C420.897 57.2923 421.071 57.4809 421.192 57.7048C421.313 57.9287 421.377 58.1804 421.377 58.4363V70.8517C421.377 71.1077 421.313 71.3594 421.192 71.5834C421.071 71.8073 420.897 71.996 420.685 72.1319V144.914C420.682 148.109 419.443 151.172 417.242 153.431C415.04 155.689 412.055 156.96 408.941 156.964ZM368.809 27.8443C366.109 27.8474 363.521 28.9492 361.612 30.9078C359.703 32.8664 358.629 35.522 358.626 38.292V48.3086L357.875 48.3384C357.836 48.3398 357.799 48.3565 357.771 48.3851C357.744 48.4137 357.728 48.452 357.728 48.492V55.0031C357.729 55.0431 357.744 55.0813 357.772 55.1099C357.799 55.1384 357.836 55.1552 357.875 55.1568L358.626 55.1861V60.8314L358.032 60.9816C357.999 60.9897 357.97 61.0088 357.948 61.0358C357.927 61.0628 357.915 61.0963 357.915 61.131V67.6424C357.915 67.6771 357.927 67.7106 357.948 67.7376C357.97 67.7646 357.999 67.7837 358.032 67.7918L358.626 67.942V71.9387L358.032 72.0888C357.999 72.097 357.97 72.1161 357.948 72.1431C357.927 72.1701 357.915 72.2035 357.915 72.2382V78.7493C357.915 78.7841 357.927 78.8176 357.948 78.8447C357.97 78.8718 357.999 78.8909 358.032 78.8991L358.626 79.0492V144.914C358.629 147.684 359.703 150.34 361.612 152.299C363.521 154.257 366.109 155.359 368.809 155.362H408.941C411.641 155.359 414.229 154.257 416.138 152.298C418.047 150.34 419.121 147.684 419.124 144.914V70.7605H419.816V58.5279H419.124V38.2919C419.121 35.522 418.047 32.8665 416.138 30.9078C414.229 28.9492 411.641 27.8475 408.941 27.8443L368.809 27.8443Z" fill="#3F3D56"/>
<path d="M393.531 32.0225C394.046 32.0225 394.464 31.5938 394.464 31.0649C394.464 30.5361 394.046 30.1074 393.531 30.1074C393.015 30.1074 392.598 30.5361 392.598 31.0649C392.598 31.5938 393.015 32.0225 393.531 32.0225Z" fill="#3F3D56"/>
<path d="M190.515 216.548H86.0885C84.6055 216.544 83.1844 215.938 82.1357 214.862C81.087 213.786 80.4961 212.328 80.4921 210.807V158.601C80.4959 157.08 81.0866 155.622 82.1352 154.546C83.1837 153.47 84.6048 152.863 86.0877 152.859H190.514C191.997 152.863 193.418 153.469 194.467 154.545C195.516 155.621 196.107 157.079 196.111 158.601V210.806C196.107 212.328 195.516 213.786 194.468 214.862C193.419 215.938 191.998 216.544 190.515 216.548Z" fill="white"/>
<path d="M190.515 216.548H86.0885C84.6055 216.544 83.1844 215.938 82.1357 214.862C81.087 213.786 80.4961 212.328 80.4921 210.807V158.601C80.4959 157.08 81.0866 155.622 82.1352 154.546C83.1837 153.47 84.6048 152.863 86.0877 152.859H190.514C191.997 152.863 193.418 153.469 194.467 154.545C195.516 155.621 196.107 157.079 196.111 158.601V210.806C196.107 212.328 195.516 213.786 194.468 214.862C193.419 215.938 191.998 216.544 190.515 216.548ZM86.0885 154.461C85.0191 154.464 83.9944 154.902 83.2383 155.678C82.4822 156.454 82.0561 157.505 82.0532 158.602V210.806C82.0562 211.903 82.4825 212.955 83.2388 213.73C83.995 214.506 85.0198 214.943 86.0893 214.946H190.514C191.583 214.943 192.608 214.506 193.364 213.73C194.121 212.954 194.547 211.903 194.55 210.805V158.601C194.547 157.504 194.12 156.453 193.364 155.677C192.608 154.901 191.583 154.464 190.514 154.461L86.0885 154.461Z" fill="#3F3D56"/>
<path d="M143.899 208.833C123.303 208.833 101.828 208.631 93.8155 208.5C92.7613 208.478 91.7574 208.033 91.018 207.262C90.2787 206.491 89.8626 205.453 89.8585 204.372V161.157C89.8589 160.77 90.0089 160.398 90.2755 160.124C90.5422 159.85 90.9039 159.695 91.2814 159.694H185.318C185.695 159.694 186.057 159.848 186.325 160.121C186.592 160.395 186.743 160.766 186.744 161.153V190.473C186.727 195.26 184.881 199.848 181.604 203.254C178.328 206.661 173.88 208.614 169.216 208.694C161.748 208.794 152.905 208.833 143.899 208.833Z" fill="#97B4FF"/>
<path d="M179.736 187.78H94.7667C94.0552 187.778 93.3616 187.551 92.7801 187.13C92.1986 186.71 91.7574 186.116 91.5165 185.429L81.8992 157.747C81.7138 157.213 81.6561 156.641 81.7307 156.08C81.8054 155.518 82.0103 154.983 82.3283 154.52C82.6462 154.056 83.0679 153.678 83.558 153.416C84.048 153.155 84.592 153.018 85.1444 153.017L191.355 152.865C191.86 152.864 192.358 152.977 192.816 153.196C193.274 153.415 193.679 153.734 194.004 154.131C194.328 154.528 194.564 154.993 194.694 155.493C194.824 155.994 194.846 156.517 194.757 157.027L194.839 157.063L194.534 157.793L194.531 157.8L182.905 185.634C182.64 186.271 182.199 186.814 181.635 187.196C181.072 187.577 180.411 187.78 179.736 187.78ZM191.36 154.467L85.1475 154.618C84.8449 154.619 84.5468 154.694 84.2783 154.837C84.0099 154.98 83.7789 155.188 83.6047 155.441C83.4305 155.695 83.3182 155.988 83.2773 156.296C83.2364 156.604 83.268 156.917 83.3695 157.209L92.9864 184.89C93.1186 185.266 93.3605 185.592 93.6792 185.822C93.9979 186.053 94.3779 186.177 94.7678 186.178H179.736C180.106 186.178 180.467 186.067 180.775 185.858C181.084 185.649 181.325 185.352 181.47 185.003L193.097 157.169C193.22 156.874 193.27 156.553 193.242 156.233C193.214 155.913 193.11 155.606 192.937 155.338C192.765 155.07 192.531 154.85 192.256 154.698C191.98 154.546 191.672 154.467 191.36 154.467Z" fill="#3F3D56"/>
<path d="M138.143 193.805C141.817 193.805 144.796 190.749 144.796 186.979C144.796 183.209 141.817 180.153 138.143 180.153C134.468 180.153 131.49 183.209 131.49 186.979C131.49 190.749 134.468 193.805 138.143 193.805Z" fill="white"/>
<path d="M389.478 134.544C393.152 134.544 396.131 131.487 396.131 127.717C396.131 123.947 393.152 120.891 389.478 120.891C385.803 120.891 382.824 123.947 382.824 127.717C382.824 131.487 385.803 134.544 389.478 134.544Z" fill="white"/>
<path d="M641.122 226.732L623.349 208.73C622.484 207.846 621.457 207.147 620.328 206.671C619.199 206.196 617.989 205.954 616.769 205.959H616.706C615.477 205.962 614.26 206.216 613.126 206.706C611.993 207.195 610.965 207.91 610.103 208.81C606.129 212.936 603.869 218.482 603.797 224.283C603.726 230.083 605.849 235.686 609.72 239.914C609.908 240.122 610.103 240.323 610.298 240.523C611.379 241.625 612.572 242.605 613.857 243.446C617.371 245.775 621.468 247.007 625.651 246.993H625.784C628.655 246.983 631.496 246.389 634.142 245.246C636.788 244.102 639.187 242.431 641.2 240.331C642.944 238.515 643.915 236.064 643.9 233.515C643.886 230.966 642.887 228.527 641.122 226.732ZM640.091 239.201C636.792 242.612 632.447 244.751 627.789 245.259C623.131 245.767 618.445 244.611 614.521 241.988C613.398 241.226 612.35 240.354 611.391 239.386C607.561 235.505 605.391 230.223 605.357 224.7C605.324 219.178 607.429 213.868 611.211 209.939C611.93 209.187 612.788 208.59 613.734 208.181C614.68 207.773 615.696 207.562 616.722 207.56H616.769C617.785 207.557 618.792 207.759 619.732 208.154C620.672 208.55 621.527 209.132 622.248 209.867L640.021 227.878C641.492 229.37 642.326 231.401 642.339 233.525C642.353 235.648 641.544 237.689 640.091 239.201Z" fill="#3F3D56"/>
<path d="M582.807 167.647L565.034 149.636C563.285 147.855 560.919 146.859 558.454 146.865H558.4C557.168 146.87 555.95 147.125 554.815 147.616C553.681 148.107 552.652 148.823 551.789 149.724C548.503 153.147 546.373 157.56 545.71 162.316C545.047 167.072 545.886 171.921 548.104 176.152L548.112 176.16C549.027 177.89 550.164 179.487 551.492 180.908C551.64 181.085 551.812 181.261 551.984 181.437C556.065 185.594 561.586 187.921 567.337 187.908H567.478C570.349 187.895 573.19 187.3 575.836 186.155C578.482 185.01 580.88 183.338 582.893 181.237C583.757 180.339 584.441 179.275 584.904 178.106C585.367 176.937 585.602 175.685 585.594 174.423C585.586 173.161 585.336 171.913 584.858 170.751C584.379 169.588 583.683 168.533 582.807 167.647ZM581.777 180.116C579.909 182.066 577.683 183.617 575.227 184.679C572.771 185.742 570.135 186.295 567.47 186.306H567.337C563.335 186.305 559.422 185.089 556.091 182.812C552.761 180.535 550.161 177.298 548.618 173.509C547.076 169.72 546.66 165.547 547.422 161.516C548.185 157.485 550.092 153.775 552.905 150.853C554.36 149.344 556.339 148.488 558.409 148.475C560.478 148.461 562.468 149.291 563.942 150.781L581.715 168.784C583.185 170.279 584.017 172.312 584.029 174.437C584.041 176.561 583.231 178.603 581.777 180.116Z" fill="#3F3D56"/>
<path d="M642.258 232.392L622.664 212.537C621.379 211.238 619.644 210.515 617.84 210.526C616.036 210.537 614.311 211.283 613.042 212.598C611.454 214.243 610.198 216.194 609.346 218.338C608.493 220.482 608.061 222.777 608.074 225.092C608.087 227.407 608.544 229.697 609.42 231.831C610.296 233.965 611.573 235.901 613.179 237.528C614.784 239.155 616.687 240.441 618.777 241.313C620.868 242.185 623.105 242.626 625.362 242.61C627.618 242.595 629.85 242.123 631.929 241.222C634.007 240.321 635.893 239.008 637.477 237.359L642.258 232.392Z" fill="#97B4FF"/>
<path d="M583.947 173.303L564.353 153.448C563.068 152.149 561.333 151.426 559.529 151.437C557.725 151.449 556 152.194 554.731 153.509C553.143 155.155 551.887 157.105 551.035 159.249C550.183 161.393 549.75 163.688 549.763 166.003C549.776 168.318 550.233 170.608 551.109 172.742C551.985 174.876 553.262 176.812 554.868 178.439C556.474 180.066 558.376 181.352 560.466 182.224C562.557 183.096 564.794 183.537 567.051 183.522C569.308 183.506 571.539 183.034 573.618 182.133C575.696 181.232 577.582 179.919 579.166 178.27L583.947 173.303Z" fill="#97B4FF"/>
<path d="M620.726 244.759L620.258 246.024C618.057 245.168 615.923 244.308 613.857 243.446C577.266 228.126 559.797 210.195 548.112 176.16L548.104 176.152C547.55 174.55 547.012 172.911 546.489 171.234L547.722 170.826C548.134 172.438 548.737 173.993 549.517 175.455C550.157 177.321 550.816 179.139 551.492 180.909C562.474 209.635 578.671 226.052 609.721 239.914C611.282 240.611 612.882 241.302 614.521 241.988C616.424 243.261 618.522 244.197 620.726 244.759Z" fill="#3F3D56"/>
<path d="M564.709 186.45L563.611 187.59L604.151 228.671L605.249 227.531L564.709 186.45Z" fill="#3F3D56"/>
<path d="M221.491 152.411L221.511 126.093L206.433 127.475L211.755 144.074L192.438 174.117C191.231 174.395 190.128 175.027 189.264 175.937C188.401 176.848 187.814 177.996 187.576 179.242C187.337 180.488 187.457 181.779 187.921 182.956C188.385 184.134 189.173 185.147 190.189 185.873C191.205 186.599 192.405 187.006 193.642 187.045C194.879 187.083 196.101 186.752 197.158 186.09C198.215 185.428 199.061 184.466 199.594 183.319C200.126 182.173 200.322 180.892 200.158 179.633L221.491 152.411Z" fill="#FFB6B6"/>
</g>
<defs>
<clipPath id="clip0_88_14">
<rect width="698" height="359" fill="white"/>
</clipPath>
</defs>
</svg>
