<svg width="169" height="169" viewBox="0 0 169 169" fill="none" xmlns="http://www.w3.org/2000/svg">
<g clip-path="url(#clip0_223_2)">
<path d="M120.457 120.413H78.207V63.2321L114.739 83.2452L120.457 120.413Z" fill="#2F2E41"/>
<path d="M86.0119 110.321C101.161 110.321 113.442 98.0395 113.442 82.8901C113.442 67.7407 101.161 55.4597 86.0119 55.4597C70.8626 55.4597 58.5815 67.7407 58.5815 82.8901C58.5815 98.0395 70.8626 110.321 86.0119 110.321Z" fill="#FFB6B6"/>
<path d="M70.2651 114.377L69.0259 101.85L93.7726 97.2227L108.385 132.802L82.9719 162.027L64.8647 126.448L70.2651 114.377Z" fill="#FFB6B6"/>
<path d="M145.188 143.297C144.88 143.618 144.565 143.936 144.251 144.25C143.253 145.248 142.237 146.217 141.198 147.157C125.632 161.274 105.66 169 84.5002 169C64.9921 169 46.4942 162.434 31.5288 150.346C31.5193 150.34 31.513 150.334 31.5034 150.324C31.0492 149.959 30.6012 149.587 30.1533 149.209C30.2327 148.98 30.3185 148.755 30.4043 148.533C35.217 135.994 44.7216 129.86 50.4905 127.176C53.3495 125.845 55.2905 125.359 55.2905 125.359L62.0632 113.16L66.8314 122.055L70.3448 128.612L84.7607 155.509L97.1974 124.542L101.051 114.942L102.039 112.483L106.737 116.14L111.184 119.599L120.139 121.575L127.405 123.179L137.271 125.359C141.261 128.608 143.688 134.79 145.045 142.471C145.096 142.745 145.143 143.021 145.188 143.297Z" fill="#6C63FF"/>
<path d="M71.5835 51.7175C74.9248 46.105 81.0614 42.2541 87.5686 41.6865C94.0757 41.1189 100.786 43.8493 105.049 48.7986C107.589 51.7479 109.254 55.3599 111.73 58.3633C117.058 64.8264 126.144 68.6054 128.471 76.6517C129.487 80.1629 128.981 83.9115 128.467 87.5303C128.026 90.6321 127.586 93.7338 127.145 96.8356C126.803 99.2494 126.474 101.794 127.379 104.058C128.441 106.714 130.982 108.454 132.625 110.795C135.421 114.779 135.217 120.612 132.149 124.391C130.818 126.029 129.055 127.265 127.66 128.849C126.265 130.434 125.23 132.6 125.815 134.628C126.934 138.513 133.027 139.445 133.695 143.433C134.037 145.472 132.629 147.508 130.784 148.44C128.939 149.373 126.767 149.4 124.714 149.15C116.915 148.202 109.693 143.329 105.895 136.45C102.098 129.571 101.821 120.863 105.175 113.758C107.929 107.922 113.048 102.765 112.992 96.3115C112.962 92.7959 111.349 89.5124 109.773 86.3701C106.545 79.9386 103.318 73.5072 100.091 67.0757C98.362 63.6306 96.3558 59.9181 92.7967 58.4381C90.0461 57.2943 86.9252 57.7379 83.9832 58.2057C81.0412 58.6736 77.9247 59.1289 75.1659 58.005C72.4071 56.8811 70.3226 53.5418 71.6371 50.8686" fill="#2F2E41"/>
<path d="M76.3904 52.0106C71.0908 50.2662 65.1458 53.0666 61.558 57.3394C57.9701 61.6121 56.2298 67.0937 54.5718 72.421C53.6221 75.4725 52.6724 78.5239 51.7228 81.5754C50.8294 84.4459 49.936 87.3165 49.0427 90.187C47.9919 93.5634 46.9325 97.1505 47.7949 100.58C48.4183 103.059 50.0226 105.31 50.0571 107.867C50.0931 110.537 48.4209 112.881 46.9555 115.113C45.49 117.346 44.1144 119.998 44.8126 122.576C45.8746 126.496 51.3255 128.651 51.0267 132.702C50.927 134.054 50.1452 135.305 50.1594 136.66C50.1774 138.385 51.5277 139.875 53.1097 140.562C54.6917 141.249 56.4712 141.287 58.1957 141.256C63.4853 141.163 68.7654 140.535 73.9292 139.385C75.9159 138.942 77.9362 138.399 79.5899 137.212C81.2436 136.026 82.4773 134.059 82.2621 132.035C81.9267 128.881 78.5356 127.092 76.8243 124.422C75.1433 121.798 75.1823 118.475 74.4575 115.445C73.4613 111.281 71.0012 107.645 69.1543 103.783C62.211 89.26 64.6416 70.749 75.0986 58.5112C76.0232 57.4291 77.0333 56.3406 77.4191 54.9706C77.8048 53.6007 77.3075 51.8552 75.9674 51.3759" fill="#2F2E41"/>
<path d="M144.25 24.7496C128.291 8.7899 107.07 0 84.5 0C61.9296 0 40.7093 8.7899 24.7496 24.7496C8.7899 40.7093 0 61.9296 0 84.5C0 105.101 7.32227 124.577 20.7406 139.955C22.0208 141.426 23.3582 142.859 24.7496 144.25C25.0768 144.578 25.4072 144.905 25.7407 145.222C26.6302 146.083 27.5356 146.925 28.4568 147.742C29.0159 148.24 29.5814 148.73 30.1532 149.209C30.6011 149.587 31.049 149.959 31.5033 150.324C31.5128 150.334 31.5192 150.34 31.5287 150.346C46.4941 162.434 64.992 169 84.5 169C105.66 169 125.632 161.274 141.198 147.157C142.236 146.217 143.253 145.248 144.25 144.25C144.565 143.936 144.879 143.618 145.188 143.297C146.045 142.414 146.878 141.515 147.691 140.604C161.468 125.127 169 105.393 169 84.5C169 61.9296 160.21 40.7093 144.25 24.7496ZM147.484 139.813C146.69 140.715 145.877 141.604 145.045 142.471C143.748 143.822 142.411 145.13 141.029 146.391C140.505 146.874 139.975 147.344 139.438 147.811C134.015 152.529 127.979 156.557 121.47 159.765C119.186 160.893 116.845 161.919 114.45 162.837C105.145 166.408 95.0466 168.365 84.5 168.365C74.3219 168.365 64.5631 166.541 55.5317 163.206C51.8246 161.84 48.2412 160.216 44.8009 158.358C44.2958 158.085 43.7939 157.809 43.2951 157.526C40.6712 156.039 38.133 154.416 35.6965 152.662C33.8762 151.357 32.11 149.981 30.4041 148.533C29.8069 148.027 29.216 147.516 28.6347 146.992C27.688 146.15 26.7605 145.283 25.8551 144.393C24.1397 142.713 22.5005 140.963 20.9344 139.142C8.288 124.453 0.635338 105.355 0.635338 84.5C0.635338 38.2569 38.2569 0.635338 84.5 0.635338C130.743 0.635338 168.365 38.2569 168.365 84.5C168.365 105.676 160.477 125.041 147.484 139.813Z" fill="white"/>
</g>
<defs>
<clipPath id="clip0_223_2">
<rect width="169" height="169" fill="white"/>
</clipPath>
</defs>
</svg>
