<svg width="169" height="169" viewBox="0 0 169 169" fill="none" xmlns="http://www.w3.org/2000/svg">
<g clip-path="url(#clip0_223_16)">
<path d="M86.0119 110.321C101.161 110.321 113.442 98.0402 113.442 82.8908C113.442 67.7414 101.161 55.4604 86.0119 55.4604C70.8626 55.4604 58.5815 67.7414 58.5815 82.8908C58.5815 98.0402 70.8626 110.321 86.0119 110.321Z" fill="#FFB6B6"/>
<path d="M70.2651 114.377L69.0259 101.851L93.7726 97.2233L108.385 132.802L82.9719 162.028L64.8647 126.449L70.2651 114.377Z" fill="#FFB6B6"/>
<path d="M68.6284 108.121L74.0386 109.343C74.0386 109.343 69.7856 95.857 71.2292 94.5694C72.6727 93.2818 76.2102 95.3106 76.2102 95.3106L79.9276 99.4784L84.4556 94.8683C84.4556 94.8683 89.3716 88.7556 91.2963 87.0389C93.2211 85.3222 90.1295 78.9499 90.1295 78.9499C90.1295 78.9499 118.685 71.2498 108.06 57.3993C108.06 57.3993 101.83 46.5399 99.8011 50.0774C97.7723 53.6149 95.3532 47.9967 95.3532 47.9967L87.9662 49.4014C87.9662 49.4014 73.387 40.8051 59.5497 59.195C45.7123 77.5849 68.6284 108.121 68.6284 108.121Z" fill="#2F2E41"/>
<path d="M137.601 150.242C122.611 162.396 104.065 169 84.4998 169C66.6341 169 49.6166 163.492 35.3818 153.282C35.4073 153.015 35.4327 152.751 35.4549 152.488C35.8329 148.358 36.1697 144.343 36.392 141.013C37.2529 128.087 67.4092 119.472 67.4092 119.472C67.4092 119.472 67.5458 119.609 67.819 119.847C69.4836 121.308 76.2404 126.607 88.0895 128.087C98.6552 129.409 102.134 123.141 103.185 120.139C103.503 119.224 103.598 118.611 103.598 118.611L134.615 133.259C136.639 136.15 137.43 142.376 137.586 149.374C137.592 149.663 137.598 149.949 137.601 150.242Z" fill="#6C63FF"/>
<path d="M144.25 24.7496C128.291 8.7899 107.07 0 84.5 0C61.9296 0 40.7093 8.7899 24.7496 24.7496C8.78992 40.7093 0 61.9296 0 84.5C0 105.101 7.32229 124.577 20.7406 139.956C22.0208 141.426 23.3582 142.859 24.7496 144.25C25.0768 144.578 25.4072 144.905 25.7407 145.222C26.6302 146.083 27.5356 146.925 28.4568 147.742C29.0159 148.24 29.5814 148.73 30.1532 149.209C30.6011 149.587 31.049 149.959 31.5033 150.324C31.5128 150.334 31.5192 150.34 31.5287 150.346C32.7898 151.363 34.0732 152.341 35.382 153.282C49.6168 163.492 66.6343 169 84.5 169C104.065 169 122.611 162.396 137.602 150.242C138.825 149.251 140.022 148.221 141.198 147.157C142.236 146.217 143.253 145.248 144.25 144.25C144.565 143.936 144.879 143.618 145.188 143.297C146.045 142.414 146.878 141.515 147.691 140.604C161.468 125.127 169 105.393 169 84.5C169 61.9296 160.21 40.7093 144.25 24.7496ZM147.484 139.813C146.69 140.715 145.877 141.604 145.045 142.471C143.748 143.822 142.411 145.13 141.029 146.391C140.505 146.874 139.975 147.344 139.438 147.811C138.828 148.342 138.212 148.863 137.586 149.374C132.652 153.425 127.249 156.919 121.47 159.765C119.186 160.893 116.845 161.919 114.45 162.837C105.145 166.408 95.0466 168.365 84.5 168.365C74.3219 168.365 64.5631 166.541 55.5317 163.206C51.8246 161.84 48.2413 160.216 44.8009 158.358C44.2958 158.085 43.7939 157.809 43.2951 157.526C40.6712 156.039 38.133 154.416 35.6965 152.662C35.6171 152.605 35.5345 152.545 35.4551 152.488C33.7206 151.236 32.0338 149.918 30.4041 148.533C29.8069 148.027 29.216 147.516 28.6347 146.992C27.6881 146.15 26.7605 145.283 25.8551 144.393C24.1397 142.713 22.5005 140.963 20.9344 139.142C8.288 124.453 0.635338 105.355 0.635338 84.5C0.635338 38.2569 38.2569 0.635338 84.5 0.635338C130.743 0.635338 168.365 38.2569 168.365 84.5C168.365 105.676 160.477 125.041 147.484 139.813Z" fill="white"/>
</g>
<defs>
<clipPath id="clip0_223_16">
<rect width="169" height="169" fill="white"/>
</clipPath>
</defs>
</svg>
