<svg width="17" height="13" viewBox="0 0 17 13" fill="none" xmlns="http://www.w3.org/2000/svg">
<path fill-rule="evenodd" clip-rule="evenodd" d="M14.6366 0.504226L8.35552 9.92578L2.07448 0.504227C1.992 0.380502 1.88596 0.274233 1.7624 0.19149C1.63885 0.108748 1.50021 0.0511512 1.3544 0.0219888C1.20859 -0.00717359 1.05846 -0.00732903 0.912584 0.0215282C0.766712 0.0503854 0.627951 0.107692 0.504226 0.190175C0.3805 0.272659 0.274232 0.378705 0.19149 0.502257C0.108748 0.625811 0.0511511 0.76445 0.0219887 0.910262C-0.0071737 1.05607 -0.00733102 1.2062 0.0215263 1.35207C0.0503836 1.49795 0.10769 1.63671 0.190174 1.76043L7.31036 12.4407C7.42508 12.6128 7.5805 12.7538 7.76282 12.8514C7.94514 12.949 8.14873 13 8.35552 13C8.56231 13 8.7659 12.949 8.94822 12.8514C9.13054 12.7538 9.28596 12.6128 9.40068 12.4407L16.5209 1.76043C16.6033 1.63671 16.6607 1.49795 16.6895 1.35207C16.7184 1.2062 16.7182 1.05607 16.6891 0.910261C16.6599 0.764449 16.6023 0.62581 16.5195 0.502257C16.4368 0.378704 16.3305 0.272659 16.2068 0.190174C16.0831 0.107691 15.9443 0.0503848 15.7985 0.0215276C15.6526 -0.00732967 15.5025 -0.00717422 15.3566 0.0219882C15.2108 0.0511506 15.0722 0.108748 14.9486 0.19149C14.8251 0.274232 14.719 0.380501 14.6366 0.504226Z" fill="#5E5E5E"/>
</svg>
