<svg width="35" height="35" viewBox="0 0 35 35" fill="none" xmlns="http://www.w3.org/2000/svg">
<path d="M17.5003 16.7709C16.5334 16.7709 15.6061 16.3867 14.9223 15.703C14.2386 15.0193 13.8545 14.092 13.8545 13.125C13.8545 12.1581 14.2386 11.2308 14.9223 10.547C15.6061 9.8633 16.5334 9.47919 17.5003 9.47919C18.4673 9.47919 19.3946 9.8633 20.0783 10.547C20.762 11.2308 21.1462 12.1581 21.1462 13.125C21.1462 13.6038 21.0519 14.0779 20.8686 14.5202C20.6854 14.9626 20.4169 15.3645 20.0783 15.703C19.7398 16.0416 19.3379 16.3101 18.8955 16.4933C18.4532 16.6766 17.9791 16.7709 17.5003 16.7709ZM17.5003 2.91669C14.7929 2.91669 12.1964 3.9922 10.2819 5.90664C8.36751 7.82107 7.29199 10.4176 7.29199 13.125C7.29199 20.7813 17.5003 32.0834 17.5003 32.0834C17.5003 32.0834 27.7087 20.7813 27.7087 13.125C27.7087 10.4176 26.6331 7.82107 24.7187 5.90664C22.8043 3.9922 20.2077 2.91669 17.5003 2.91669Z" fill="white"/>
</svg>
