<svg width="24" height="24" viewBox="0 0 24 24" fill="none" xmlns="http://www.w3.org/2000/svg">
<path fill-rule="evenodd" clip-rule="evenodd" d="M7.24999 17L14.75 12L7.24999 7.00002C7.1515 6.93436 7.0669 6.84994 7.00104 6.75159C6.93517 6.65323 6.88932 6.54287 6.86611 6.4268C6.84289 6.31072 6.84277 6.19122 6.86574 6.07509C6.88871 5.95897 6.93433 5.84851 6.99999 5.75002C7.1326 5.55111 7.33879 5.41302 7.57321 5.36614C7.68929 5.34292 7.8088 5.3428 7.92492 5.36577C8.04104 5.38874 8.1515 5.43436 8.24999 5.50002L16.752 11.168C16.8889 11.2593 17.0012 11.3831 17.0789 11.5282C17.1566 11.6733 17.1972 11.8354 17.1972 12C17.1972 12.1646 17.1566 12.3267 17.0789 12.4718C17.0012 12.617 16.8889 12.7407 16.752 12.832L8.24999 18.5C8.1515 18.5657 8.04104 18.6113 7.92492 18.6343C7.8088 18.6572 7.68929 18.6571 7.57321 18.6339C7.45714 18.6107 7.34678 18.5648 7.24842 18.499C7.15007 18.4331 7.06565 18.3485 6.99999 18.25C6.93433 18.1515 6.88871 18.0411 6.86574 17.9249C6.84277 17.8088 6.84289 17.6893 6.86611 17.5732C6.88932 17.4572 6.93517 17.3468 7.00104 17.2485C7.0669 17.1501 7.1515 17.0657 7.24999 17Z" fill="white"/>
</svg>
