<svg width="16" height="16" viewBox="0 0 16 16" fill="none" xmlns="http://www.w3.org/2000/svg">
<g clip-path="url(#clip0_197_465)">
<path d="M14.5999 12.5022L14.4488 12.3689C14.0201 11.9869 13.6449 11.5489 13.3332 11.0667C12.9929 10.4011 12.7889 9.67431 12.7332 8.92888V6.73332C12.7362 5.56248 12.3115 4.43087 11.5389 3.55109C10.7663 2.67131 9.69909 2.10393 8.53769 1.95555V1.38221C8.53769 1.22485 8.47518 1.07393 8.36391 0.962663C8.25264 0.851391 8.10172 0.788879 7.94436 0.788879C7.787 0.788879 7.63608 0.851391 7.52481 0.962663C7.41354 1.07393 7.35102 1.22485 7.35102 1.38221V1.96443C6.20003 2.12351 5.14568 2.69433 4.38326 3.57115C3.62084 4.44797 3.20202 5.57139 3.20436 6.73332V8.92888C3.14869 9.67431 2.9447 10.4011 2.60436 11.0667C2.29808 11.5477 1.92889 11.9857 1.50658 12.3689L1.35547 12.5022V13.7555H14.5999V12.5022Z" fill="white"/>
<path d="M6.80908 14.2222C6.84806 14.504 6.98766 14.7621 7.2021 14.9489C7.41654 15.1357 7.69134 15.2386 7.97575 15.2386C8.26016 15.2386 8.53496 15.1357 8.7494 14.9489C8.96384 14.7621 9.10344 14.504 9.14242 14.2222H6.80908Z" fill="white"/>
</g>
<defs>
<clipPath id="clip0_197_465">
<rect width="16" height="16" fill="white"/>
</clipPath>
</defs>
</svg>
