<svg width="29" height="27" viewBox="0 0 29 27" fill="none" xmlns="http://www.w3.org/2000/svg">
<path d="M19.8817 17.2678L19.1613 17.9851C19.1613 17.9851 17.4465 19.6887 12.7678 15.0369C8.08902 10.3851 9.80377 8.68138 9.80377 8.68138L10.2566 8.22855C11.376 7.11705 11.4821 5.33105 10.5052 4.02638L8.51019 1.36163C7.30052 -0.253366 4.96511 -0.467116 3.57969 0.910384L1.09386 3.38038C0.408272 4.06438 -0.0508947 4.94788 0.004522 5.92955C0.147022 8.4423 1.28386 13.8462 7.62352 20.1511C14.3479 26.8359 20.6575 27.1019 23.2368 26.8612C24.0538 26.7852 24.7631 26.3704 25.3347 25.8004L27.583 23.5647C29.103 22.0558 28.6755 19.4671 26.7312 18.411L23.707 16.7659C22.4309 16.074 20.8792 16.2766 19.8817 17.2678Z" fill="white"/>
</svg>
